<svg width="20" height="20" viewBox="0 0 20 20" fill="none" xmlns="http://www.w3.org/2000/svg">
<g opacity="0.5">
<path d="M10 19C14.9706 19 19 14.9706 19 10C19 5.02944 14.9706 1 10 1C5.02944 1 1 5.02944 1 10C1 14.9706 5.02944 19 10 19Z" fill="#181818" stroke="#181818" stroke-width="1.7" stroke-linecap="round" stroke-linejoin="round"/>
<path d="M8.09058 8.02611C8.25938 7.54626 8.59256 7.14162 9.03111 6.88388C9.46967 6.62614 9.98529 6.53193 10.4866 6.61792C10.988 6.70392 11.4428 6.96458 11.7703 7.35373C12.0979 7.74289 12.2772 8.23543 12.2765 8.74411C12.2765 10.1801 10.1225 10.8981 10.1225 10.8981" stroke="#FAFAFA" stroke-width="1.7" stroke-linecap="round" stroke-linejoin="round"/>
<path d="M10.1799 13.77H10.1871" stroke="#FAFAFA" stroke-width="1.7" stroke-linecap="round" stroke-linejoin="round"/>
</g>
</svg>
