<svg width="200" height="43" viewBox="0 0 200 43" fill="none" xmlns="http://www.w3.org/2000/svg">
<g clip-path="url(#clip0_414_1464)">
<path d="M55.3537 33.4922V3.96672C55.3537 3.78596 55.4253 3.61259 55.5526 3.48477C55.68 3.35695 55.8528 3.28516 56.0329 3.28516H60.9638C61.1439 3.28516 61.3167 3.35695 61.444 3.48477C61.5714 3.61259 61.643 3.78596 61.643 3.96672V15.2739C61.643 15.4547 61.7145 15.628 61.8419 15.7558C61.9693 15.8837 62.142 15.9555 62.3222 15.9555H75.2267C75.4068 15.9555 75.5796 15.8837 75.7069 15.7558C75.8343 15.628 75.9059 15.4547 75.9059 15.2739V3.96672C75.9059 3.78596 75.9774 3.61259 76.1048 3.48477C76.2322 3.35695 76.4049 3.28516 76.5851 3.28516H81.5024C81.6825 3.28516 81.8552 3.35695 81.9826 3.48477C82.11 3.61259 82.1815 3.78596 82.1815 3.96672V33.4922C82.1815 33.6729 82.11 33.8463 81.9826 33.9741C81.8552 34.1019 81.6825 34.1737 81.5024 34.1737H76.5715C76.3913 34.1737 76.2186 34.1019 76.0912 33.9741C75.9638 33.8463 75.8923 33.6729 75.8923 33.4922V22.1918C75.8923 22.011 75.8207 21.8377 75.6934 21.7099C75.566 21.582 75.3932 21.5102 75.2131 21.5102H62.3086C62.1284 21.5102 61.9557 21.582 61.8283 21.7099C61.7009 21.8377 61.6294 22.011 61.6294 22.1918V33.4922C61.6294 33.6729 61.5578 33.8463 61.4305 33.9741C61.3031 34.1019 61.1303 34.1737 60.9502 34.1737H56.0329C55.8528 34.1737 55.68 34.1019 55.5526 33.9741C55.4253 33.8463 55.3537 33.6729 55.3537 33.4922Z" fill="#0A2C33"/>
<path d="M97.3002 10.9664C104.208 10.9664 109.437 16.085 109.437 22.7916C109.437 29.4982 104.208 34.6168 97.3002 34.6168C90.3929 34.6168 85.1631 29.4982 85.1631 22.7916C85.1631 16.085 90.3997 10.9664 97.3002 10.9664ZM97.3002 29.1915C100.73 29.1915 103.284 26.4652 103.284 22.7916C103.284 19.1179 100.73 16.4394 97.3002 16.4394C93.8703 16.4394 91.3234 19.1656 91.3234 22.7916C91.3234 26.4175 93.9179 29.1915 97.3002 29.1915Z" fill="#0A2C33"/>
<path d="M147.343 20.3652V33.4922C147.343 33.6729 147.271 33.8463 147.144 33.9741C147.016 34.1019 146.844 34.1737 146.663 34.1737H142.086C141.906 34.1737 141.733 34.1019 141.606 33.9741C141.478 33.8463 141.407 33.6729 141.407 33.4922V21.4216C141.407 18.4704 139.647 16.3916 137.331 16.3916C134.689 16.3916 132.842 18.4704 132.842 21.4216V33.4922C132.842 33.6729 132.77 33.8463 132.643 33.9741C132.516 34.1019 132.343 34.1737 132.163 34.1737H127.585C127.405 34.1737 127.232 34.1019 127.105 33.9741C126.977 33.8463 126.906 33.6729 126.906 33.4922V21.4216C126.906 18.4704 125.147 16.3916 122.865 16.3916C120.223 16.3916 118.375 18.4704 118.375 21.4216V33.4922C118.375 33.6729 118.304 33.8463 118.176 33.9741C118.049 34.1019 117.876 34.1737 117.696 34.1737H113.118C112.938 34.1737 112.766 34.1019 112.638 33.9741C112.511 33.8463 112.439 33.6729 112.439 33.4922V12.091C112.439 11.9102 112.511 11.7369 112.638 11.609C112.766 11.4812 112.938 11.4094 113.118 11.4094H117.696C117.876 11.4094 118.049 11.4812 118.176 11.609C118.304 11.7369 118.375 11.9102 118.375 12.091V13.8699C118.376 14.0155 118.424 14.1569 118.511 14.2734C118.598 14.3899 118.72 14.4754 118.859 14.5173C118.998 14.5592 119.147 14.5554 119.283 14.5063C119.42 14.4573 119.537 14.3656 119.618 14.2447C120.219 13.2515 121.063 12.429 122.07 11.8552C123.077 11.2814 124.213 10.9754 125.371 10.9664C128.353 10.9664 130.621 12.6635 131.85 15.342C131.904 15.461 131.991 15.5619 132.101 15.6327C132.211 15.7034 132.338 15.741 132.468 15.741C132.599 15.741 132.726 15.7034 132.836 15.6327C132.946 15.5619 133.033 15.461 133.087 15.342C134.445 12.6158 136.808 10.9528 139.661 10.9528C144.266 10.9664 147.343 14.9399 147.343 20.3652Z" fill="#0A2C33"/>
<path d="M151.459 2.48092C155.024 -0.374845 159.432 3.70772 156.722 7.55857C156.675 7.62183 156.62 7.67906 156.559 7.72896C152.803 10.6392 148.45 6.2227 151.33 2.61722C151.367 2.56691 151.41 2.52118 151.459 2.48092ZM151.01 33.4922V12.091C151.01 11.9102 151.082 11.7369 151.209 11.6091C151.337 11.4812 151.509 11.4094 151.689 11.4094H156.267C156.447 11.4094 156.62 11.4812 156.747 11.6091C156.875 11.7369 156.946 11.9102 156.946 12.091V33.4922C156.946 33.6729 156.875 33.8463 156.747 33.9741C156.62 34.1019 156.447 34.1737 156.267 34.1737H151.689C151.599 34.1765 151.508 34.1609 151.423 34.1278C151.339 34.0948 151.261 34.045 151.196 33.9815C151.131 33.9179 151.079 33.8419 151.043 33.7578C151.008 33.6738 150.99 33.5834 150.99 33.4922H151.01Z" fill="#0A2C33"/>
<path d="M163.609 33.4922V17.339C163.609 17.1583 163.538 16.9849 163.41 16.8571C163.283 16.7293 163.11 16.6575 162.93 16.6575H159.717C159.537 16.6575 159.365 16.5857 159.237 16.4578C159.11 16.33 159.038 16.1567 159.038 15.9759V12.091C159.038 11.9102 159.11 11.7369 159.237 11.609C159.365 11.4812 159.537 11.4094 159.717 11.4094H162.93C163.11 11.4094 163.283 11.3376 163.41 11.2098C163.538 11.082 163.609 10.9086 163.609 10.7278V10.3462C163.609 4.43699 166.509 1.5199 172.758 1.5199H174.761C174.942 1.5199 175.114 1.59169 175.242 1.71951C175.369 1.84733 175.441 2.0207 175.441 2.20146V6.0932C175.441 6.27396 175.369 6.44731 175.242 6.57513C175.114 6.70295 174.942 6.77477 174.761 6.77477H170.225C170.044 6.77477 169.872 6.84656 169.744 6.97438C169.617 7.1022 169.545 7.27557 169.545 7.45633V10.7278C169.545 10.9086 169.617 11.082 169.744 11.2098C169.872 11.3376 170.044 11.4094 170.225 11.4094H174.761C174.942 11.4094 175.114 11.4812 175.242 11.609C175.369 11.7369 175.441 11.9102 175.441 12.091V15.9759C175.441 16.1567 175.369 16.33 175.242 16.4578C175.114 16.5857 174.942 16.6575 174.761 16.6575H170.225C170.044 16.6575 169.872 16.7293 169.744 16.8571C169.617 16.9849 169.545 17.1583 169.545 17.339V33.4922C169.545 33.6729 169.474 33.8463 169.346 33.9741C169.219 34.1019 169.046 34.1737 168.866 34.1737H164.288C164.108 34.1737 163.936 34.1019 163.808 33.9741C163.681 33.8463 163.609 33.6729 163.609 33.4922Z" fill="#0A2C33"/>
<path d="M194.716 11.4094H199.321C199.429 11.4047 199.537 11.4261 199.636 11.472C199.734 11.5178 199.82 11.5866 199.887 11.6728C199.953 11.7589 199.998 11.8597 200.018 11.9669C200.038 12.074 200.032 12.1844 200 12.2886L190.851 42.5161C190.808 42.661 190.717 42.7871 190.594 42.8748C190.471 42.9624 190.323 43.0064 190.172 43H185.567C185.459 43.0047 185.351 42.9832 185.252 42.9374C185.154 42.8916 185.068 42.8227 185.001 42.7366C184.935 42.6505 184.89 42.5496 184.87 42.4425C184.85 42.3353 184.856 42.225 184.888 42.1207L187.041 35.0597C187.074 34.9551 187.081 34.844 187.062 34.7359C187.043 34.6278 186.998 34.526 186.932 34.439C186.865 34.352 186.778 34.2824 186.679 34.2363C186.58 34.1901 186.471 34.1686 186.362 34.1737H182.966C182.822 34.1731 182.682 34.1266 182.566 34.0408C182.45 33.9551 182.364 33.8345 182.321 33.6966L175.909 12.2682C175.878 12.1639 175.871 12.0536 175.891 11.9464C175.911 11.8393 175.956 11.7384 176.022 11.6523C176.089 11.5662 176.175 11.4973 176.273 11.4515C176.372 11.4057 176.48 11.3842 176.588 11.3889H181.574C181.726 11.3833 181.876 11.4293 181.999 11.5196C182.122 11.6098 182.212 11.7391 182.253 11.8865L187.292 30.2888C187.334 30.4303 187.419 30.5547 187.537 30.6432C187.654 30.7317 187.797 30.7795 187.944 30.7795C188.091 30.7795 188.234 30.7317 188.352 30.6432C188.47 30.5547 188.555 30.4303 188.596 30.2888L194.145 11.8524C194.189 11.7323 194.266 11.627 194.367 11.5486C194.468 11.4703 194.589 11.422 194.716 11.4094Z" fill="#0A2C33"/>
<path d="M32.2681 -1.75218e-05H7.13824C6.20148 -0.0018098 5.27355 0.181798 4.40758 0.540297C3.54161 0.898797 2.75459 1.42515 2.09156 2.08923C1.42854 2.75332 0.902526 3.5421 0.543629 4.41042C0.184732 5.27874 -4.01094e-06 6.20955 -2.30835e-06 7.1496V32.3675C-0.00178833 33.3076 0.181178 34.2388 0.538426 35.1078C0.895674 35.9768 1.42019 36.7666 2.08195 37.4319C2.74372 38.0973 3.52974 38.6251 4.39503 38.9853C5.26032 39.3454 6.1879 39.5308 7.12467 39.5308H32.2546C33.1913 39.5326 34.1193 39.349 34.9852 38.9905C35.8512 38.632 36.6382 38.1056 37.3012 37.4416C37.9643 36.7775 38.4903 35.9887 38.8492 35.1204C39.2081 34.252 39.3928 33.3212 39.3928 32.3812V7.16325C39.3946 6.2232 39.2116 5.29201 38.8544 4.42301C38.4971 3.554 37.9726 2.76423 37.3108 2.09888C36.6491 1.43354 35.8631 0.905673 34.9978 0.545518C34.1325 0.185364 33.2049 -1.92303e-05 32.2681 -1.75218e-05ZM24.3624 27.9442C24.3624 28.125 24.2909 28.2983 24.1635 28.4261C24.0361 28.5539 23.8634 28.6258 23.6832 28.6258H15.7367C15.5566 28.6258 15.3839 28.5539 15.2565 28.4261C15.1291 28.2983 15.0576 28.125 15.0576 27.9442V27.767C15.0576 27.5862 15.1291 27.4129 15.2565 27.285C15.3839 27.1572 15.5566 27.0854 15.7367 27.0854H23.6832C23.8634 27.0854 24.0361 27.1572 24.1635 27.285C24.2909 27.4129 24.3624 27.5862 24.3624 27.767V27.9442ZM24.2402 24.993H15.1526C14.5654 24.993 14.0022 24.7589 13.587 24.3422C13.1718 23.9255 12.9385 23.3604 12.9385 22.7711V16.5416C12.9382 15.9519 13.1702 15.386 13.5837 14.9672L17.9101 10.6256C18.3214 10.2159 18.8757 9.98313 19.4552 9.97677C20.0347 9.9704 20.5939 10.1909 21.014 10.5915L25.5849 14.9944C26.0018 15.3973 26.2455 15.9475 26.2641 16.528L26.4475 22.7029C26.4529 22.9976 26.3999 23.2904 26.2914 23.5642C26.183 23.8381 26.0214 24.0876 25.816 24.2981C25.6105 24.5087 25.3654 24.6762 25.0949 24.7908C24.8244 24.9054 24.5338 24.9649 24.2402 24.9657V24.993Z" fill="#0A2C33"/>
</g>
<defs>
<clipPath id="clip0_414_1464">
<rect width="200" height="43" fill="white"/>
</clipPath>
</defs>
</svg>
