<svg width="40" height="40" viewBox="0 0 40 40" fill="none" xmlns="http://www.w3.org/2000/svg">
<path d="M32.2682 -1.75218e-05H7.13826C6.20149 -0.0018098 5.27357 0.181798 4.40759 0.540297C3.54162 0.898797 2.7546 1.42515 2.09158 2.08923C1.42855 2.75332 0.902541 3.5421 0.543644 4.41042C0.184747 5.27874 1.12478e-05 6.20955 1.29504e-05 7.1496V32.3675C-0.00177307 33.3076 0.181193 34.2388 0.538441 35.1078C0.89569 35.9768 1.42021 36.7666 2.08197 37.4319C2.74373 38.0973 3.52975 38.6251 4.39504 38.9853C5.26033 39.3454 6.18791 39.5308 7.12468 39.5308H32.2546C33.1913 39.5326 34.1193 39.349 34.9852 38.9905C35.8512 38.632 36.6382 38.1056 37.3013 37.4416C37.9643 36.7775 38.4903 35.9887 38.8492 35.1204C39.2081 34.252 39.3928 33.3212 39.3928 32.3812V7.16325C39.3946 6.2232 39.2116 5.29201 38.8544 4.42301C38.4971 3.554 37.9726 2.76423 37.3109 2.09888C36.6491 1.43354 35.8631 0.905673 34.9978 0.545518C34.1325 0.185364 33.2049 -1.92303e-05 32.2682 -1.75218e-05ZM24.3624 27.9442C24.3624 28.125 24.2909 28.2983 24.1635 28.4261C24.0361 28.5539 23.8634 28.6258 23.6832 28.6258H15.7368C15.5566 28.6258 15.3839 28.5539 15.2565 28.4261C15.1291 28.2983 15.0576 28.125 15.0576 27.9442V27.767C15.0576 27.5862 15.1291 27.4129 15.2565 27.285C15.3839 27.1572 15.5566 27.0854 15.7368 27.0854H23.6832C23.8634 27.0854 24.0361 27.1572 24.1635 27.285C24.2909 27.4129 24.3624 27.5862 24.3624 27.767V27.9442ZM24.2402 24.993H15.1527C14.5654 24.993 14.0023 24.7589 13.587 24.3422C13.1718 23.9255 12.9385 23.3604 12.9385 22.7711V16.5416C12.9383 15.9519 13.1702 15.386 13.5837 14.9672L17.9102 10.6256C18.3215 10.2159 18.8757 9.98313 19.4552 9.97677C20.0347 9.9704 20.5939 10.1909 21.014 10.5915L25.585 14.9944C26.0018 15.3973 26.2455 15.9475 26.2641 16.528L26.4475 22.7029C26.4529 22.9976 26.3999 23.2904 26.2915 23.5642C26.183 23.8381 26.0214 24.0876 25.816 24.2981C25.6106 24.5087 25.3655 24.6762 25.0949 24.7908C24.8244 24.9054 24.5338 24.9649 24.2402 24.9657V24.993Z" fill="#0A2C33"/>
</svg>
