<svg width="60" height="60" viewBox="0 0 60 60" fill="none" xmlns="http://www.w3.org/2000/svg">
<rect width="60" height="60" rx="30" fill="#181818"/>
<path d="M41 29.3889C41.0042 31.0021 40.6273 32.5934 39.9 34.0333C39.0376 35.7588 37.7119 37.2101 36.0713 38.2247C34.4307 39.2393 32.5401 39.777 30.6111 39.7778C28.9979 39.782 27.4066 39.4051 25.9667 38.6778L19 41L21.3222 34.0333C20.5949 32.5934 20.218 31.0021 20.2222 29.3889C20.223 27.4599 20.7607 25.5693 21.7753 23.9287C22.7899 22.2881 24.2412 20.9624 25.9667 20.1C27.4066 19.3727 28.9979 18.9958 30.6111 19H31.2222C33.7697 19.1406 36.1759 20.2159 37.98 22.02C39.7841 23.8241 40.8594 26.2303 41 28.7778V29.3889Z" fill="#F7F7F7"/>
</svg>
