<svg width="57" height="57" viewBox="0 0 57 57" fill="none" xmlns="http://www.w3.org/2000/svg">
<rect width="57" height="57" rx="10" fill="#0A2C33"/>
<path d="M38.5846 40.6674V38.2558C38.5846 36.9767 38.0765 35.7499 37.172 34.8454C36.2675 33.9409 35.0407 33.4327 33.7615 33.4327H24.1154C22.8362 33.4327 21.6095 33.9409 20.705 34.8454C19.8005 35.7499 19.2923 36.9767 19.2923 38.2558V40.6674" stroke="white" stroke-width="3" stroke-linecap="round" stroke-linejoin="round"/>
<path d="M28.9385 28.6097C31.6022 28.6097 33.7615 26.4503 33.7615 23.7866C33.7615 21.1229 31.6022 18.9635 28.9385 18.9635C26.2748 18.9635 24.1154 21.1229 24.1154 23.7866C24.1154 26.4503 26.2748 28.6097 28.9385 28.6097Z" stroke="white" stroke-width="3" stroke-linecap="round" stroke-linejoin="round"/>
</svg>
