<svg width="63" height="62" viewBox="0 0 63 62" fill="none" xmlns="http://www.w3.org/2000/svg">
<path d="M51.5948 0H11.4052C5.10517 0 0 5.02414 0 11.2241V50.7759C0 56.9759 5.10517 62 11.4052 62H51.5948C57.8948 62 63 56.9759 63 50.7759V11.2241C63 5.02414 57.8948 0 51.5948 0ZM38.9948 43.8276C38.9948 44.469 38.4517 44.8965 37.9086 44.8965H25.0914C24.4397 44.8965 24.0052 44.3621 24.0052 43.8276V43.5069C24.0052 42.8655 24.5483 42.4379 25.0914 42.4379H37.8C38.4517 42.4379 38.8862 42.9724 38.8862 43.5069V43.8276H38.9948ZM38.7776 39.1241H24.2224C22.2672 39.1241 20.6379 37.5207 20.6379 35.5965V25.869C20.6379 24.9069 20.9638 24.0517 21.7241 23.4103L28.6759 16.569C30.0879 15.1793 32.2603 15.1793 33.6724 16.569L40.95 23.5172C41.6017 24.1586 42.0362 25.0138 42.0362 25.9759L42.3621 35.7034C42.3621 37.5207 40.7328 39.1241 38.7776 39.1241Z" fill="#0A2C33"/>
</svg>
